<?xml version="1.0" encoding="UTF-8"?>
<svg width="446px" height="446px" viewBox="0 0 446 446" version="1.1" xmlns="http://www.w3.org/2000/svg" xmlns:xlink="http://www.w3.org/1999/xlink">
    <!-- Generator: Sketch 50.2 (55047) - http://www.bohemiancoding.com/sketch -->
    <title>logo_标准@2x</title>
    <desc>Created with Sketch.</desc>
    <defs>
        <linearGradient x1="52.5457501%" y1="100%" x2="52.5457504%" y2="0%" id="linearGradient-1">
            <stop stop-color="#1E3DA0" offset="0%"></stop>
            <stop stop-color="#3750DE" offset="100%"></stop>
        </linearGradient>
        <linearGradient x1="50%" y1="0%" x2="50%" y2="100%" id="linearGradient-2">
            <stop stop-color="#1D3BA3" stop-opacity="0" offset="0%"></stop>
            <stop stop-color="#173793" stop-opacity="0.652938179" offset="100%"></stop>
        </linearGradient>
        <linearGradient x1="50%" y1="100%" x2="50%" y2="0%" id="linearGradient-3">
            <stop stop-color="#1E3DA0" offset="0%"></stop>
            <stop stop-color="#3750DE" offset="100%"></stop>
        </linearGradient>
        <path d="M202,153 L242,153 L242,138 C242,124.192881 253.192881,113 267,113 C280.807119,113 292,124.192881 292,138 L292,153 L307,153 C320.807119,153 332,164.192881 332,178 C332,191.807119 320.807119,203 307,203 L292,203 L292,243 L307,243 C320.807119,243 332,254.192881 332,268 C332,281.807119 320.807119,293 307,293 L292,293 L292,308 C292,321.807119 280.807119,333 267,333 C253.192881,333 242,321.807119 242,308 L242,293 L202,293 L202,308 C202,321.807119 190.807119,333 177,333 C163.192881,333 152,321.807119 152,308 L152,293 L137,293 C123.192881,293 112,281.807119 112,268 C112,254.192881 123.192881,243 137,243 L152,243 L152,203 L137,203 C123.192881,203 112,191.807119 112,178 C112,164.192881 123.192881,153 137,153 L152,153 L152,138 C152,124.192881 163.192881,113 177,113 C190.807119,113 202,124.192881 202,138 L202,153 Z M202,203 L202,243 L242,243 L242,203 L202,203 Z" id="path-4"></path>
        <filter x="-20.9%" y="-9.5%" width="137.3%" height="138.2%" filterUnits="objectBoundingBox" id="filter-5">
            <feOffset dx="-5" dy="22" in="SourceAlpha" result="shadowOffsetOuter1"></feOffset>
            <feGaussianBlur stdDeviation="10" in="shadowOffsetOuter1" result="shadowBlurOuter1"></feGaussianBlur>
            <feColorMatrix values="0 0 0 0 0.127020501   0 0 0 0 0.296556776   0 0 0 0 0.678013393  0 0 0 0.286062047 0" type="matrix" in="shadowBlurOuter1"></feColorMatrix>
        </filter>
    </defs>
    <g id="logo" stroke="none" stroke-width="1" fill="none" fill-rule="evenodd">
        <g id="logo_标准">
            <polygon id="Combined-Shape" fill="url(#linearGradient-1)" points="0 0 446 0 446 446 0 446"></polygon>
            <circle id="Oval-5" fill="#FFFFFF" cx="222" cy="223" r="170"></circle>
            <path d="M223,446 C99.8405008,446 0,346.159499 0,223 C0,99.8405008 99.8405008,0 223,0 C346.159499,0 446,99.8405008 446,223 C446,346.159499 346.159499,446 223,446 Z M222,393 C315.888407,393 392,316.888407 392,223 C392,129.111593 315.888407,53 222,53 C128.111593,53 52,129.111593 52,223 C52,316.888407 128.111593,393 222,393 Z" id="Combined-Shape" fill="url(#linearGradient-2)"></path>
            <g id="Combined-Shape" transform="translate(222.000000, 223.000000) rotate(-30.000000) translate(-222.000000, -223.000000) ">
                <use fill="black" fill-opacity="1" filter="url(#filter-5)" xlink:href="#path-4"></use>
                <use fill="url(#linearGradient-3)" fill-rule="evenodd" xlink:href="#path-4"></use>
            </g>
        </g>
    </g>
</svg>