<svg id="레이어_1" data-name="레이어 1" xmlns="http://www.w3.org/2000/svg" viewBox="0 0 1920 1000"><defs><style>.cls-1{fill:#fff;}</style></defs><title>dexeos</title><path class="cls-1" d="M696.29,412.35c51.8,0,89.3,36.81,89.3,87.65,0,50.59-37.74,87.65-90,87.65H625.49V412.35ZM654.6,561.1H697c33.55,0,59.21-25.29,59.21-60.85,0-35.81-26.4-61.35-60.44-61.35H654.6Z"/><path class="cls-1" d="M845.78,438.9v47.33h84.37v26.54H845.78V561.1H943v26.55H816.67V412.35H940V438.9Z"/><path class="cls-1" d="M1121.33,587.65h-34.78l-46.62-66.11-46.38,66.11h-34l62.91-89.9-58.47-85.4h33.8l42.19,60.85,42.43-60.85h34l-58,84.14Z"/><path class="cls-1" d="M1178.32,438.9v47.33h84.37v26.54h-84.37V561.1h97.2v26.55H1149.21V412.35h123.35V438.9Z"/><path class="cls-1" d="M1479.78,500c0,50.08-40,88.9-91.53,88.9s-91.52-38.82-91.52-88.9c0-50.33,40-88.4,91.52-88.4S1479.78,449.92,1479.78,500Zm-153.45,0a62.36,62.36,0,0,0,62.17,62.35c33.8,0,61.43-27.54,61.43-62.35a61.8,61.8,0,1,0-123.6,0Z"/><path class="cls-1" d="M1628,429.13l-12.09,26c-18.75-11.52-37.5-16.27-50.57-16.27-17,0-28.13,6.51-28.13,18.28,0,38.31,93.25,17.78,93,80.88,0,31.31-27.14,50.59-65.13,50.59a105.32,105.32,0,0,1-70.55-27.8l12.58-25.54c17.76,16.53,40,25.54,58.46,25.54,20.23,0,32.32-7.76,32.32-21.28,0-39.07-93.25-17.28-93.25-79.64,0-30.05,25.41-48.83,62.91-48.83C1590.05,411.1,1612,418.36,1628,429.13Z"/><path class="cls-1" d="M540.61,391.07c3-.21,5.95-.35,9-.35h13.73V363.24H549.6c-3.24,0-6.44.15-9.62.37a137.5,137.5,0,0,0-113.42,76.8,136.05,136.05,0,0,0-123.08-77.17H289.74V636.76h13.74a136.05,136.05,0,0,0,123.08-77.17A137.51,137.51,0,0,0,540,636.38c3.18.23,6.38.38,9.62.38h13.73V609.28H549.6c-3,0-6-.14-8.94-.35-51.13-4.15-93.1-44.69-99.52-95.2H563.33V486.27H441.14C447.56,435.76,489.53,395.22,540.61,391.07ZM412.8,500c0,54.9-41.61,101.62-95.58,108.44V391.56C371.19,398.38,412.8,445.1,412.8,500Z"/></svg>